<svg xmlns="http://www.w3.org/2000/svg" viewBox="0 0 100 100"><defs><style>.cls-1{fill:#f05a2b;}</style></defs><title>Error icon</title><g id="Layer_2" data-name="Layer 2"><g id="Layer_1-2" data-name="Layer 1"><path class="cls-1" d="M50,0a50,50,0,1,0,50,50A50.06,50.06,0,0,0,50,0Zm5.68,70.9c-.17.43-.28.51-.7.51-1.72,0-3.44,0-5.12,0s-3.35,0-5,0a1,1,0,0,1-.33,0,1.5,1.5,0,0,1,0-.39c0-1.82,0-3.67,0-5.46V62.09a3.65,3.65,0,0,1,.13-.92l.19-.69c.89-3.3,1.82-6.71,2.75-10a5.2,5.2,0,0,1,4.2-3.85l.28,0a1.81,1.81,0,0,1,0,.32c0,2.66,0,5.36,0,8,0,.9,0,1.8,0,2.71v.22a5.28,5.28,0,0,0,0,.79A1.42,1.42,0,0,0,53.58,60a1.45,1.45,0,0,0,1.51-1.34,5.53,5.53,0,0,0,0-.56V54.44c0-2.9,0-5.91,0-8.87a2.17,2.17,0,0,0-.53-1.66,1.75,1.75,0,0,0-1.38-.4h0a.28.28,0,0,1,0-.09v-.59c0-1.11,0-2.27,0-3.41a.41.41,0,0,1,0-.16.93.93,0,0,1,.32-.1l.16,0a12.34,12.34,0,0,0,5.16-2.21c0,1.87,0,3.73,0,5.56,0,5.81,0,11.29,0,16.86a14.92,14.92,0,0,1-1.35,6.94c-.59,1.24-1.07,2.54-1.53,3.8ZM34,28.11c0-.29,0-.34.32-.45,2.33-.91,4.81-1.9,7.8-3.12a2.69,2.69,0,0,1,1-.12H64.62c4.22,0,8.59,0,12.89,0a1,1,0,0,1,.52.06s.06.09,0,.5A5.17,5.17,0,0,1,73.17,30c-2.34.07-4.73.06-7,.05-1.35,0-2.74,0-4.12,0h-.18v-.19a1.63,1.63,0,0,0-.4-1.25A1.88,1.88,0,0,0,60,28.13c-3.77,0-7.81,0-12.73,0a2.08,2.08,0,0,0-1.49.48,1.46,1.46,0,0,0-.36,1.1c.06,1.45,1.43,1.44,2,1.44H51c2.41,0,4.89,0,7.33,0a1.58,1.58,0,0,1,.5.05,1.71,1.71,0,0,1-.09.51A5.1,5.1,0,0,1,55,35.61c-2.83.81-5.73,1.6-8.53,2.36l-2.32.63a3.52,3.52,0,0,1-.81.1H39.73c-1.77,0-3.6,0-5.4,0a2,2,0,0,1-.36,0,.69.69,0,0,1,0-.25C34,35,34,31.44,34,28.11Zm-3.32-.82a.88.88,0,0,1,.3,0,1.16,1.16,0,0,1,0,.31c0,3.19,0,7.4,0,11.66a1,1,0,0,1,0,.36s-.12,0-.46,0c-1.55,0-14.6,0-24.13,0H4.41A46.82,46.82,0,0,1,9.15,27.3C16.51,27.31,28.86,27.32,30.63,27.29Zm1.55,15.39c.41,0,1.16,0,1.46-.67.12-.28.24-.3.77-.29h.23l2.47,0c4.31,0,8.76.1,13-1.63l.05,0h0v0c0,1,0,2.09,0,3.17,0,.5,0,.64-.56.85a7.48,7.48,0,0,0-4.75,4.95c-.21.72-.43,1.43-.64,2.15-1.66,5.55-3.38,11.3-2.73,17.41a13.08,13.08,0,0,1,0,1.78c0,.26,0,.53,0,.8v.29h0a1.72,1.72,0,0,0-.95,1.81c0,2.14,0,14.86,0,22.46A46.81,46.81,0,0,1,3.26,50a47.78,47.78,0,0,1,.57-7.32ZM43.56,74.86a1,1,0,0,1,0-.43.87.87,0,0,1,.39-.05c3.85.05,7.73.05,11.54,0h0a1,1,0,0,1,.35,0,1,1,0,0,1,.05.44c0,1.67,0,12,0,19.45v2.06a48.58,48.58,0,0,1-5.94.37,46.88,46.88,0,0,1-6.42-.44V93.57C43.58,86.34,43.59,76.45,43.56,74.86ZM59,95.88c0-2.84,0-6.39,0-9.64V77.16c0-.43,0-.86,0-1.33a8.86,8.86,0,0,0-.19-3.25,3,3,0,0,1,.41-2.44,7.07,7.07,0,0,0,.51-1.23,25.8,25.8,0,0,1,1.32-3.41l.28-.64a6.51,6.51,0,0,0,.51-2.66c0-3.45,0-7,0-10.35V44.44c0-3.51,0-7.14,0-10.71,0-.49.08-.59.09-.61s.13-.09.63-.07c2.33.06,4.69,0,7,0h2A14.11,14.11,0,0,0,74.28,33c3.5-.6,7.12-3.74,6.8-9.19-.12-2-.32-2.36-2.39-2.36h-9c-8.08,0-16.45,0-24.67,0a16.33,16.33,0,0,0-6.36,1.22c-.43.17-.86.36-1.27.54-1.91.84-3.71,1.64-5.94,1.26-1.84-.32-13.11-.24-20.46-.17A46.73,46.73,0,1,1,59,95.88Z"/></g></g></svg>